<?xml version="1.0" standalone="no"?>
<!DOCTYPE svg PUBLIC "-//W3C//DTD SVG 20010904//EN"
 "http://www.w3.org/TR/2001/REC-SVG-20010904/DTD/svg10.dtd">
<svg version="1.0" xmlns="http://www.w3.org/2000/svg"
 width="657.000000pt" height="657.000000pt" viewBox="0 0 657.000000 657.000000"
 preserveAspectRatio="xMidYMid meet">
<metadata>
Created by potrace 1.14, written by Peter Selinger 2001-2017
</metadata>
<g transform="translate(0.000000,657.000000) scale(0.100000,-0.100000)"
fill="#000000" stroke="none">
<path d="M1826 6131 c-60 -242 -108 -441 -107 -443 1 -2 -3 -16 -9 -33 -7 -16
-14 -39 -16 -50 -2 -11 -22 -91 -44 -177 -22 -87 -42 -168 -44 -180 -6 -31
-65 -253 -66 -253 -1 0 -3 -9 -4 -20 -2 -11 -13 -58 -25 -105 -13 -46 -23 -93
-24 -102 -1 -10 -5 -18 -9 -18 -4 0 -7 -3 -6 -7 1 -5 -5 -35 -12 -68 -8 -33
-15 -64 -15 -70 -1 -5 -7 -30 -14 -55 -7 -25 -15 -52 -17 -60 -2 -8 -15 -60
-29 -115 -15 -55 -28 -109 -30 -120 -2 -11 -22 -92 -45 -180 -23 -88 -43 -169
-44 -180 -2 -11 -6 -27 -9 -35 -7 -16 -37 -132 -43 -165 -2 -11 -15 -65 -30
-119 -14 -55 -27 -107 -29 -115 -11 -48 -77 -311 -84 -336 -11 -36 -28 -100
-35 -135 -3 -14 -10 -43 -15 -65 -6 -22 -11 -45 -11 -50 0 -7 123 -10 355 -10
195 1 355 -2 355 -5 0 -3 -16 -68 -35 -145 -20 -77 -37 -148 -40 -157 -2 -9
-15 -63 -29 -120 -15 -57 -28 -112 -31 -123 -2 -11 -11 -47 -20 -80 -9 -33
-23 -89 -31 -125 -23 -100 -28 -119 -89 -360 -31 -124 -58 -233 -60 -243 -2
-10 -7 -28 -11 -40 -4 -12 -9 -29 -10 -37 -1 -8 -19 -80 -39 -160 -21 -80 -39
-154 -41 -165 -1 -11 -19 -81 -39 -155 -19 -74 -37 -144 -40 -155 -2 -11 -32
-128 -65 -260 -56 -224 -67 -266 -73 -305 -2 -9 -6 -20 -9 -25 -5 -9 -20 -71
-19 -77 0 -2 -6 -25 -14 -52 -8 -27 -15 -53 -15 -58 0 -5 62 73 137 174 75
101 140 184 145 186 4 2 8 10 8 17 0 7 4 15 8 17 7 3 373 486 412 544 8 12 50
67 92 122 42 55 74 103 71 106 -4 3 -2 6 4 6 6 0 28 23 48 52 21 28 42 56 47
62 5 6 81 108 170 226 204 274 201 269 216 285 6 8 12 18 12 23 0 6 4 12 8 14
5 2 37 41 72 88 34 47 65 87 69 90 3 3 15 19 25 35 11 17 27 39 37 50 10 11
58 74 106 140 48 66 90 122 93 125 3 3 32 41 65 85 32 44 64 85 69 92 6 6 36
46 66 88 30 42 79 107 107 143 29 37 53 70 53 73 0 3 -158 5 -350 5 -224 -1
-351 3 -353 9 -4 10 -2 19 27 130 9 33 27 107 41 165 15 58 28 113 31 123 2 9
6 25 8 35 2 9 9 37 15 62 7 25 14 56 17 70 8 36 10 43 17 60 3 8 15 56 28 106
21 87 23 91 48 88 37 -4 372 -6 376 -2 2 1 56 1 120 -2 64 -3 118 -4 119 -3 1
1 94 4 206 7 113 3 221 7 240 10 19 3 57 8 84 12 48 6 63 8 116 19 14 2 39 7
57 10 77 12 275 69 358 102 101 40 268 123 273 135 2 4 8 8 13 8 11 0 163 107
213 152 100 86 197 190 266 283 25 33 48 62 53 63 4 2 7 8 7 13 0 5 16 33 35
64 73 114 195 387 195 437 0 10 5 18 12 18 6 0 9 3 6 6 -3 3 2 32 12 65 10 32
16 59 13 59 -3 0 0 6 6 13 6 8 9 16 6 19 -3 2 0 20 6 39 12 40 16 58 23 119 4
25 9 59 12 75 9 47 11 253 2 325 -42 353 -241 598 -583 717 -38 14 -83 27 -98
29 -16 2 -33 6 -38 10 -5 3 -19 7 -32 10 -12 2 -33 6 -47 9 -14 3 -45 8 -70
11 -25 3 -54 9 -65 12 -11 3 -609 7 -1330 9 l-1310 4 -109 -440z m1869 -495
c129 -17 198 -37 260 -77 55 -36 70 -55 103 -129 67 -152 36 -348 -80 -507
-38 -53 -136 -144 -179 -168 -107 -59 -183 -84 -344 -111 -16 -3 -73 -6 -125
-8 l-95 -3 -30 -45 c-50 -75 -150 -232 -154 -243 -2 -5 -19 -31 -38 -57 -18
-26 -33 -50 -33 -53 0 -4 -18 -33 -40 -65 -22 -32 -40 -62 -40 -65 0 -3 -5
-11 -10 -18 -14 -16 -100 -148 -100 -152 0 -2 -27 -44 -60 -94 -56 -85 -75
-108 -65 -78 2 6 6 24 9 38 5 29 30 128 52 205 8 28 14 55 13 60 -1 5 1 16 4
24 4 8 15 51 26 95 11 44 36 145 56 225 38 149 42 167 51 210 8 35 10 43 17
60 4 12 22 82 43 173 2 9 7 27 10 40 3 12 8 33 9 47 2 14 4 26 5 28 2 1 4 7 5
12 1 6 4 13 5 18 2 4 4 12 5 17 1 6 4 17 8 25 6 18 26 96 31 125 2 11 18 74
35 140 17 66 32 129 34 140 1 11 5 25 9 30 3 6 10 28 14 50 9 46 8 40 19 80 4
17 12 32 16 35 12 8 492 4 554 -4z"/>
</g>
</svg>
